<?xml version="1.0" encoding="UTF-8" standalone="no"?>
<svg
   xmlns:dc="http://purl.org/dc/elements/1.1/"
   xmlns:cc="http://creativecommons.org/ns#"
   xmlns:rdf="http://www.w3.org/1999/02/22-rdf-syntax-ns#"
   xmlns:svg="http://www.w3.org/2000/svg"
   xmlns="http://www.w3.org/2000/svg"
   xmlns:sodipodi="http://sodipodi.sourceforge.net/DTD/sodipodi-0.dtd"
   xmlns:inkscape="http://www.inkscape.org/namespaces/inkscape"
   version="1.1"
   width="149"
   height="170"
   id="svg4797"
   inkscape:version="0.91 r13725"
   viewBox="0 0 149 170"
   sodipodi:docname="chris_avatar.svg">
  <metadata
     id="metadata5116">
    <rdf:RDF>
      <cc:Work
         rdf:about="">
        <dc:format>image/svg+xml</dc:format>
        <dc:type
           rdf:resource="http://purl.org/dc/dcmitype/StillImage" />
        <dc:title></dc:title>
      </cc:Work>
    </rdf:RDF>
  </metadata>
  <defs
     id="defs5114" />
  <sodipodi:namedview
     pagecolor="#ffffff"
     bordercolor="#666666"
     borderopacity="1"
     objecttolerance="10"
     gridtolerance="10"
     guidetolerance="10"
     inkscape:pageopacity="0"
     inkscape:pageshadow="2"
     inkscape:window-width="1920"
     inkscape:window-height="1026"
     id="namedview5112"
     showgrid="false"
     showborder="true"
     inkscape:zoom="2.0225926"
     inkscape:cx="104.2517"
     inkscape:cy="171.86923"
     inkscape:window-x="0"
     inkscape:window-y="27"
     inkscape:window-maximized="1"
     inkscape:current-layer="Layer1000" />
  <g
     id="Layer1000"
     transform="translate(0,-70.944902)">
    <g
       id="g5118"
       transform="matrix(1,0,0,0.99462031,-18.787755,21.58346)"
       style="opacity:0.9">
      <path
         inkscape:connector-curvature="0"
         id="path5012"
         style="fill:#1b1918;fill-rule:evenodd"
         d="m 109.4868,141.734 -32.7225,0 c -8.3997,0 -15.2094,-6.8097 -15.2094,-15.21 l 0,-32.8521 61.7466,0 0,34.2473 c 0,7.6298 -6.185,13.8148 -13.8147,13.8148 z" />
      <path
         inkscape:connector-curvature="0"
         id="path5014"
         style="fill:#353d42;fill-rule:evenodd"
         d="m 140.5465,189.9042 -93.3473,-1.5727 0,-9.9302 c 0,-16.2124 19.9312,-31.3352 39.5287,-31.3352 l 14.7156,0 c 17.4096,0 39.103,15.2279 39.103,29.6308 l 0,13.2073 z" />
      <path
         inkscape:connector-curvature="0"
         id="path5016"
         style="fill:#f7bc9b;fill-rule:evenodd"
         d="m 98.57,126.5305 -11.8885,0 c -2.4015,0 -4.3484,1.9463 -4.3484,4.3482 l 0,18.6396 c 0,5.6842 4.608,10.2921 10.2922,10.2921 5.6849,0 10.2929,-4.6079 10.2929,-10.2921 l 0,-18.6396 c 0,-2.4019 -1.9469,-4.3482 -4.3482,-4.3482 z" />
      <path
         inkscape:connector-curvature="0"
         id="path5018"
         style="fill:#f4a47c;fill-rule:evenodd"
         d="m 82.3331,146.9266 c 0,0 0.833,6.0621 10.2922,6.0621 9.4601,0 10.2943,-6.0621 10.2943,-6.0621 l -20.5865,0 z" />
      <path
         inkscape:connector-curvature="0"
         id="path5020"
         style="fill:#f4a47c;fill-rule:evenodd"
         d="m 122.2004,103.1543 c -3.5913,0 -6.5014,3.0257 -6.5014,6.758 0,3.733 2.9101,6.759 6.5014,6.759 3.5896,0 6.5004,-3.026 6.5004,-6.759 0,-3.7323 -2.9108,-6.758 -6.5004,-6.758 z" />
      <path
         inkscape:connector-curvature="0"
         id="path5022"
         style="fill:#f4a47c;fill-rule:evenodd"
         d="m 63.0746,103.1543 c -3.5904,0 -6.5012,3.0257 -6.5012,6.758 0,3.733 2.9108,6.759 6.5012,6.759 3.5899,0 6.5007,-3.026 6.5007,-6.759 0,-3.7323 -2.9108,-6.758 -6.5007,-6.758 z" />
      <path
         inkscape:connector-curvature="0"
         id="path5024"
         style="fill:#f7bc9b;fill-rule:evenodd"
         d="m 90.2598,148.9624 -0.0507,0.0515 c 0.7977,0.0687 1.6019,0.113 2.4168,0.113 l 0,0 c 2.4502,0 4.8271,-0.3191 7.099,-0.9138 0.0099,-0.0207 0.0185,-0.0414 0.0286,-0.0629 12.5739,-3.3028 21.8802,-15.1392 21.8802,-29.2379 l 0,-35.3357 c 0,-16.6562 -12.987,-14.0022 -29.0078,-14.0022 l 0,0 c -16.0205,0 -29.0075,-2.654 -29.0075,14.0022 l 0,35.3357 c 0,15.826 11.7283,28.7964 26.6414,30.0501 z" />
      <path
         inkscape:connector-curvature="0"
         id="path5026"
         style="fill:#3d1c18;fill-rule:evenodd"
         d="m 117.9292,107.295 0,9.5379 -12.4329,0 c 0,0 -2.5501,-6.8833 -12.8704,-6.8833 -10.32,0 -12.8701,6.8833 -12.8701,6.8833 l -12.4329,0 0,-9.5379 c 0,-3.7594 -1.3774,-4.9987 -3.7045,-5.408 l 0,17.0253 c 0,15.826 11.7283,28.7964 26.6414,30.0501 l -0.0507,0.0515 c 0.7977,0.0687 1.6019,0.113 2.4168,0.113 0.8152,0 1.6194,-0.0443 2.4171,-0.113 l -0.0507,-0.0515 c 14.9123,-1.2537 26.6414,-14.2241 26.6414,-30.0501 l 0,-17.0253 c -2.3271,0.4093 -3.7045,1.6486 -3.7045,5.408 z" />
      <path
         inkscape:connector-curvature="0"
         id="path5028"
         style="fill:#e5e3e2;fill-rule:evenodd"
         d="m 83.6519,120.9629 17.451,0 c 0,0 -1.5405,6.8513 -8.7258,6.8513 -7.1854,0 -8.7252,-6.8513 -8.7252,-6.8513 z" />
      <path
         inkscape:connector-curvature="0"
         id="path5030"
         style="fill:#c0c0be;fill-rule:evenodd"
         d="m 161.1178,239.8111 -136.0077,0 c -2.7919,0 -5.0551,-2.2642 -5.0551,-5.0561 l 0,-0.2375 c 0,-2.7927 2.2632,-5.0561 5.0551,-5.0561 l 136.0077,0 c 2.7913,0 5.0553,2.2634 5.0553,5.0561 l 0,0.2375 c 0,2.7919 -2.264,5.0561 -5.0553,5.0561 z" />
      <path
         inkscape:connector-curvature="0"
         id="path5032"
         style="fill:#d1d1d0;fill-rule:evenodd"
         d="m 148.6705,239.8111 -111.9488,0 c -3.5856,0 -6.4919,-2.9076 -6.4919,-6.4921 l 0,-64.2674 c 0,-3.5856 2.9063,-6.4927 6.4919,-6.4927 l 111.9488,0 c 3.5856,0 6.4921,2.9071 6.4921,6.4927 l 0,64.2674 c 0,3.5845 -2.9065,6.4921 -6.4921,6.4921 z" />
      <path
         inkscape:connector-curvature="0"
         id="path5034"
         style="fill:#ffffff;fill-rule:evenodd"
         d="m 91.1548,209.9204 c -4.8169,0 -8.7357,-3.919 -8.7357,-8.7351 0,-4.817 3.9188,-8.736 8.7357,-8.736 4.817,0 8.7352,3.919 8.7352,8.736 0,4.8161 -3.9182,8.7351 -8.7352,8.7351 z" />
      <path
         inkscape:connector-curvature="0"
         id="path5036"
         style="fill:#f4a47c;fill-rule:evenodd"
         d="m 93.1991,113.9802 -1.6808,0 c -1.9855,0 -3.5225,-1.7409 -3.2763,-3.7116 l 0.8408,-6.7209 c 0.206,-1.6522 1.6106,-2.8921 3.2756,-2.8921 l 0,0 c 1.665,0 3.0696,1.2399 3.2765,2.8921 l 0.8399,6.7209 c 0.2468,1.9707 -1.29,3.7116 -3.2757,3.7116 z" />
      <path
         inkscape:connector-curvature="0"
         id="path5038"
         style="fill:#00482e;fill-rule:evenodd"
         d="m 94.7919,61.0181 -6.089,0.0029 c -1.3474,6e-4 -2.4508,-1.1012 -2.4516,-2.4486 l 0,-0.1152 c -6e-4,-1.3473 1.1013,-2.4507 2.4493,-2.4513 l 6.0885,-0.0029 c 1.3474,-8e-4 2.4508,1.1012 2.4514,2.4486 l 0,0.1152 c 8e-4,1.3471 -1.1012,2.4505 -2.4486,2.4513 z" />
      <path
         inkscape:connector-curvature="0"
         id="path5040"
         style="fill:#1b1918;fill-rule:evenodd"
         d="m 61.5549,93.6719 61.7466,-0.0315 -0.004,-7.2948 C 123.29,71.3812 111.1526,59.2564 96.188,59.2643 l -7.5553,0.0036 C 73.6681,59.2758 61.5435,71.4126 61.5514,86.3772 l 0.0035,7.2947 z" />
      <path
         inkscape:connector-curvature="0"
         id="path5042"
         style="fill:#3d1c18;fill-rule:evenodd"
         d="m 94.5658,75.26 -5.1346,0.0021 c -4.6267,0.0028 -8.3759,3.7551 -8.3739,8.3824 l 0.0036,5.7794 21.8902,-0.0114 -0.004,-5.7793 c -0.002,-4.6267 -3.7545,-8.376 -8.3818,-8.3732 z" />
      <path
         inkscape:connector-curvature="0"
         id="path5044"
         style="fill:#68b320;fill-rule:evenodd"
         d="m 81.4595,84.9525 21.566,-0.0107 0.004,7.244 -21.5666,0.0115 c -2.0007,6e-4 -3.6229,-1.62 -3.6244,-3.6206 l 0,0 c -6e-4,-2.0007 1.62,-3.6227 3.6207,-3.6242 z" />
      <path
         inkscape:connector-curvature="0"
         id="path5046"
         style="fill:#e8413b;fill-rule:evenodd"
         d="m 84.9633,88.7097 c 9e-4,0.9732 -0.7883,1.7632 -1.7621,1.7638 -0.974,8e-4 -1.7632,-0.7884 -1.7638,-1.7616 -8e-4,-0.9737 0.7884,-1.7637 1.7624,-1.7645 0.9729,-7e-4 1.7629,0.7885 1.7635,1.7623 z" />
      <path
         inkscape:connector-curvature="0"
         id="path5048"
         style="fill:#00482e;fill-rule:evenodd"
         d="m 84.9633,88.7097 c 9e-4,0.9732 -0.7883,1.7632 -1.7621,1.7638 -0.974,8e-4 -1.7632,-0.7884 -1.7638,-1.7616 -8e-4,-0.9737 0.7884,-1.7637 1.7624,-1.7645 0.9729,-7e-4 1.7629,0.7885 1.7635,1.7623 z" />
      <path
         inkscape:connector-curvature="0"
         id="path5050"
         style="fill:#00482e;fill-rule:evenodd"
         d="m 92.1968,88.7063 c 0,0.9737 -0.7886,1.7629 -1.7624,1.7638 -0.9738,6e-4 -1.7632,-0.7886 -1.7638,-1.7624 -8e-4,-0.974 0.7886,-1.7632 1.7616,-1.7638 0.9739,-8e-4 1.7638,0.7884 1.7646,1.7624 z" />
      <path
         inkscape:connector-curvature="0"
         id="path5052"
         style="fill:#00482e;fill-rule:evenodd"
         d="m 99.43,88.7018 c 0,0.974 -0.7892,1.7638 -1.7624,1.7646 -0.9746,6e-4 -1.7638,-0.7886 -1.7644,-1.7624 0,-0.9737 0.7884,-1.7637 1.7624,-1.7637 0.9738,-7e-4 1.7638,0.7885 1.7644,1.7615 z" />
      <path
         inkscape:connector-curvature="0"
         id="path5054"
         style="fill:#1d1f1d;fill-rule:evenodd"
         d="m 81.2356,100.637 c 0,1.4804 -1.1999,2.6809 -2.6812,2.6809 -1.4804,0 -2.681,-1.2005 -2.681,-2.6809 0,-1.4805 1.2006,-2.6812 2.681,-2.6812 1.4813,0 2.6812,1.2007 2.6812,2.6812 z" />
      <path
         inkscape:connector-curvature="0"
         id="path5056"
         style="fill:#1d1f1d;fill-rule:evenodd"
         d="m 107.8962,100.637 c 0,1.4804 -1.2007,2.6809 -2.6812,2.6809 -1.481,0 -2.6809,-1.2005 -2.6809,-2.6809 0,-1.4805 1.1999,-2.6812 2.6809,-2.6812 1.4805,0 2.6812,1.2007 2.6812,2.6812 z" />
      <path
         inkscape:connector-curvature="0"
         id="path5058"
         style="fill:#3d1c18;fill-rule:evenodd"
         d="m 103.0255,84.9418 c 0,0 5.2721,-3.1805 4.8707,-8.4733 l -6.7933,1.9313 1.4312,-5.866 -6.0335,6.2037 6.5249,6.2043 z" />
    </g>
  </g>
</svg>
