<?xml version="1.0" encoding="UTF-8" standalone="no"?>
<svg
   xmlns:dc="http://purl.org/dc/elements/1.1/"
   xmlns:cc="http://creativecommons.org/ns#"
   xmlns:rdf="http://www.w3.org/1999/02/22-rdf-syntax-ns#"
   xmlns:svg="http://www.w3.org/2000/svg"
   xmlns="http://www.w3.org/2000/svg"
   xmlns:sodipodi="http://sodipodi.sourceforge.net/DTD/sodipodi-0.dtd"
   xmlns:inkscape="http://www.inkscape.org/namespaces/inkscape"
   height="512pt"
   viewBox="0 0 512 512"
   width="512pt"
   id="svg2"
   version="1.1"
   inkscape:version="0.91 r13725"
   sodipodi:docname="guitar.svg">
  <metadata
     id="metadata18">
    <rdf:RDF>
      <cc:Work
         rdf:about="">
        <dc:format>image/svg+xml</dc:format>
        <dc:type
           rdf:resource="http://purl.org/dc/dcmitype/StillImage" />
      </cc:Work>
    </rdf:RDF>
  </metadata>
  <defs
     id="defs16" />
  <sodipodi:namedview
     pagecolor="#ffffff"
     bordercolor="#666666"
     borderopacity="1"
     objecttolerance="10"
     gridtolerance="10"
     guidetolerance="10"
     inkscape:pageopacity="0"
     inkscape:pageshadow="2"
     inkscape:window-width="1920"
     inkscape:window-height="1026"
     id="namedview14"
     showgrid="false"
     inkscape:zoom="0.36875"
     inkscape:cx="47.457627"
     inkscape:cy="320"
     inkscape:window-x="0"
     inkscape:window-y="27"
     inkscape:window-maximized="1"
     inkscape:current-layer="svg2" />
  <path
     d="m132.238281 317.875h-15v-15h15zm-25 0h-15.003906v-15h15.003906zm0 0"
     id="path4" />
  <path
     d="m486.644531 0-19.894531 10.597656-9.90625-9.90625-10.605469 10.605469 6.667969 6.671875-7.734375 4.117188-10.664063-10.664063-10.605468 10.605469 7.429687 7.433594-10.3125 5.488281-2.441406 4.929687-7.539063-7.539062-10.605468 10.605468 11.113281 11.113282-4 8.066406-168.113281 168.113281 42.324218 42.324219 229.5625-229.5625v-19.640625zm-171.4375 175.675781 16.671875-16.671875 21.109375 21.109375-16.671875 16.671875zm10.503907 31.71875-16.675782 16.671875-21.109375-21.109375 16.671875-16.671875zm16.773437-58.996093 16.675781-16.671876 21.109375 21.109376-16.671875 16.671874zm27.28125-27.28125 16.671875-16.671876 21.109375 21.109376-16.671875 16.675781zm-109.117187 109.121093 16.671874-16.671875 21.109376 21.109375-16.671876 16.671875zm157.507812-115.289062-21.109375-21.109375 16.671875-16.671875 21.109375 21.109375zm78.164062-78.164063-50.886718 50.882813-22.601563-22.601563 9.488281-19.136718 51.851563-27.617188 12.144531 11.5v6.972656zm0 0"
     id="path6" />
  <path
     d="m267.164062 301.695312-56.863281-56.863281-33.925781 33.925781 56.863281 56.863282zm-56.863281-35.648437 35.648438 35.648437-12.710938 12.710938-35.648437-35.648438zm0 0"
     id="path8" />
  <path
     d="m197.472656 495.582031-1.9375.328125-16.632812-16.632812v-146.179688h-146.179688l-16.632812-16.632812.328125-1.9375 237.574219-114.171875-6.496094-13.519531-244.5625 117.53125-2.933594 17.222656 26.507812 26.507812h137.394532v137.394532l26.507812 26.507812 17.222656-2.933594 117.53125-244.5625-13.519531-6.496094zm0 0"
     id="path12" />
</svg>
